<?xml version="1.0" standalone="no"?>
<!DOCTYPE svg PUBLIC "-//W3C//DTD SVG 20010904//EN"
 "http://www.w3.org/TR/2001/REC-SVG-20010904/DTD/svg10.dtd">
<svg version="1.0" xmlns="http://www.w3.org/2000/svg"
 width="303.000000pt" height="64.000000pt" viewBox="0 0 303.000000 64.000000"
 preserveAspectRatio="xMidYMid meet">

<g transform="translate(0.000000,64.000000) scale(0.100000,-0.100000)"
fill="#000000" stroke="none">
<path d="M1895 618 c-3 -7 -6 -60 -7 -118 l-3 -105 -57 -3 c-62 -3 -60 -5 -70
63 -3 16 -11 20 -43 20 l-40 0 0 -215 0 -215 40 0 40 0 5 135 5 135 60 0 60 0
5 -60 c5 -59 5 -60 38 -63 60 -6 62 0 62 217 0 140 -3 200 -12 209 -16 16 -77
15 -83 0z"/>
<path d="M2052 618 c-14 -14 -16 -56 -3 -76 5 -8 23 -12 47 -10 l39 3 0 45 c0
44 -1 45 -35 48 -19 2 -41 -3 -48 -10z"/>
<path d="M2052 468 c-9 -9 -12 -69 -12 -209 0 -217 2 -223 62 -217 l33 3 3
209 c2 161 -1 211 -10 218 -19 12 -62 10 -76 -4z"/>
<path d="M2207 473 c-4 -3 -7 -26 -7 -49 0 -41 1 -43 33 -46 l32 -3 5 -90 5
-90 40 0 40 0 3 70 c3 104 7 115 41 115 30 0 41 14 41 54 0 39 -18 46 -125 46
-56 0 -105 -3 -108 -7z"/>
<path d="M190 340 c0 -24 4 -30 21 -30 21 0 22 -14 3 -64 -4 -10 -1 -16 9 -16
12 0 47 73 47 97 0 2 -11 3 -25 3 -18 0 -25 5 -25 20 0 11 -7 20 -15 20 -10 0
-15 -10 -15 -30z"/>
<path d="M750 340 c0 -24 4 -30 21 -30 21 0 22 -14 3 -64 -4 -10 -1 -16 9 -16
12 0 47 73 47 97 0 2 -11 3 -25 3 -18 0 -25 5 -25 20 0 11 -7 20 -15 20 -10 0
-15 -10 -15 -30z"/>
<path d="M1147 333 c-4 -3 -2 -12 4 -19 13 -15 8 -69 -6 -69 -5 0 -11 19 -13
43 -2 28 -8 42 -18 42 -10 0 -14 -12 -14 -45 0 -38 4 -47 24 -56 38 -18 66 3
66 49 0 46 -23 75 -43 55z"/>
<path d="M1551 331 c-7 -5 -21 -7 -30 -4 -13 3 -16 -5 -17 -46 -1 -62 21 -70
31 -11 8 48 35 56 35 10 0 -16 -4 -30 -10 -30 -5 0 -10 -7 -10 -15 0 -18 5
-18 31 -5 26 14 27 85 1 99 -10 5 -24 6 -31 2z"/>
<path d="M62 263 c2 -42 8 -68 16 -71 9 -3 12 15 12 67 0 57 -3 71 -15 71 -13
0 -15 -12 -13 -67z"/>
<path d="M130 280 c0 -38 4 -50 15 -50 11 0 15 12 15 50 0 38 -4 50 -15 50
-11 0 -15 -12 -15 -50z"/>
<path d="M300 280 c0 -38 4 -50 15 -50 11 0 15 12 15 50 0 38 -4 50 -15 50
-11 0 -15 -12 -15 -50z"/>
<path d="M360 281 c0 -39 4 -51 15 -51 11 0 15 11 15 40 0 29 4 40 15 40 11 0
15 -11 15 -40 0 -30 4 -40 16 -40 12 0 14 10 12 48 l-3 47 -42 3 -43 3 0 -50z"/>
<path d="M540 300 c0 -20 5 -30 15 -30 10 0 15 10 15 30 0 20 -5 30 -15 30
-10 0 -15 -10 -15 -30z"/>
<path d="M600 320 c0 -5 5 -10 10 -10 6 0 10 -9 10 -19 0 -11 -4 -23 -10 -26
-5 -3 -10 -16 -10 -28 0 -20 0 -20 15 -1 8 11 15 14 15 7 0 -7 7 -13 16 -13
11 0 14 5 10 16 -3 9 -6 31 -6 50 0 30 -3 34 -25 34 -14 0 -25 -4 -25 -10z"/>
<path d="M690 280 c0 -38 4 -50 15 -50 11 0 15 12 15 50 0 38 -4 50 -15 50
-11 0 -15 -12 -15 -50z"/>
<path d="M860 280 c0 -38 4 -50 15 -50 11 0 15 12 15 50 0 38 -4 50 -15 50
-11 0 -15 -12 -15 -50z"/>
<path d="M920 321 c0 -6 5 -11 10 -11 6 0 10 -13 10 -30 0 -16 -4 -30 -10 -30
-5 0 -10 -4 -10 -10 0 -5 11 -10 26 -10 24 0 25 2 22 48 -3 40 -6 47 -25 50
-13 2 -23 -1 -23 -7z"/>
<path d="M1000 320 c0 -5 6 -10 14 -10 17 0 28 -24 20 -45 -4 -8 -12 -15 -20
-15 -8 0 -14 -4 -14 -10 0 -5 13 -10 30 -10 23 0 31 5 36 25 3 14 3 36 0 50
-5 20 -13 25 -36 25 -17 0 -30 -4 -30 -10z"/>
<path d="M1272 263 c2 -53 6 -68 18 -68 12 0 16 15 18 68 3 62 1 67 -18 67
-19 0 -21 -5 -18 -67z"/>
<path d="M1340 280 c0 -38 4 -50 15 -50 11 0 15 12 15 50 0 38 -4 50 -15 50
-11 0 -15 -12 -15 -50z"/>
<path d="M1400 321 c0 -6 9 -11 20 -11 16 0 20 -7 20 -30 0 -23 -4 -30 -20
-30 -11 0 -20 -5 -20 -11 0 -6 14 -9 33 -7 31 3 32 5 32 48 0 43 -1 45 -32 48
-19 2 -33 -1 -33 -7z"/>
<path d="M63 110 c0 -36 2 -53 4 -37 3 18 10 27 23 27 13 0 20 -9 23 -27 2
-16 4 1 4 37 0 36 -2 53 -4 38 -3 -19 -10 -28 -23 -28 -13 0 -20 9 -23 28 -2
15 -4 -2 -4 -38z"/>
<path d="M213 110 c0 -36 2 -50 4 -32 2 17 2 47 0 65 -2 17 -4 3 -4 -33z"/>
<path d="M403 110 c0 -36 2 -50 4 -32 2 17 2 47 0 65 -2 17 -4 3 -4 -33z"/>
<path d="M937 146 c-12 -17 -22 -22 -40 -19 -28 6 -43 -22 -32 -58 11 -34 49
-21 53 19 4 44 22 41 22 -5 0 -20 2 -34 4 -32 4 4 14 119 10 119 -1 0 -9 -11
-17 -24z m-32 -56 c0 -13 -5 -25 -11 -27 -14 -5 -25 22 -17 42 8 23 28 12 28
-15z"/>
<path d="M1000 160 c0 -5 5 -10 10 -10 6 0 10 -22 10 -50 0 -27 5 -50 10 -50
6 0 10 23 10 50 0 28 5 50 10 50 6 0 10 5 10 10 0 6 -13 10 -30 10 -16 0 -30
-4 -30 -10z"/>
<path d="M1193 110 c0 -36 2 -48 4 -27 3 23 9 37 18 37 9 0 15 -14 18 -37 l4
-38 1 43 c2 35 -1 42 -17 42 -12 0 -21 8 -24 23 -2 12 -4 -7 -4 -43z"/>
<path d="M1393 110 c0 -36 2 -50 4 -32 2 17 2 47 0 65 -2 17 -4 3 -4 -33z"/>
<path d="M558 138 c-3 -7 -16 -12 -31 -10 -37 3 -43 -15 -16 -45 l24 -26 -22
6 c-13 3 -23 1 -23 -4 0 -13 37 -11 45 2 4 6 -2 21 -14 33 l-21 23 30 0 c27 0
30 -3 30 -34 0 -18 3 -33 8 -33 4 0 6 21 5 46 -1 47 -8 65 -15 42z"/>
<path d="M620 135 c-8 -10 -9 -15 -1 -15 6 0 11 -16 11 -35 0 -19 3 -35 8 -35
7 0 7 88 -1 96 -2 2 -10 -2 -17 -11z"/>
<path d="M730 135 c-8 -10 -9 -15 -1 -15 6 0 11 -16 11 -35 0 -19 3 -35 8 -35
7 0 7 88 -1 96 -2 2 -10 -2 -17 -11z"/>
<path d="M1894 126 c-3 -8 -4 -29 -2 -48 3 -31 6 -33 42 -36 24 -2 42 2 47 10
13 19 11 62 -3 76 -17 17 -77 15 -84 -2z"/>
<path d="M2274 127 c-3 -9 -4 -30 -2 -49 3 -31 5 -33 43 -33 l40 0 0 45 c0 45
0 45 -38 48 -26 2 -39 -1 -43 -11z"/>
<path d="M144 116 c-11 -28 1 -61 22 -64 24 -3 36 23 27 58 -6 23 -41 27 -49
6z m36 -26 c0 -16 -5 -30 -10 -30 -14 0 -24 26 -16 45 10 26 26 16 26 -15z"/>
<path d="M234 116 c-3 -8 -4 -25 -2 -38 2 -17 9 -23 28 -23 22 0 25 4 25 35 0
29 -4 36 -23 38 -13 2 -24 -3 -28 -12z m41 -26 c0 -27 -20 -38 -28 -15 -8 20
3 47 17 42 6 -2 11 -14 11 -27z"/>
<path d="M301 88 c2 -43 2 -43 8 -9 9 49 29 51 34 4 l4 -38 1 43 c2 39 0 42
-23 42 -23 0 -25 -3 -24 -42z"/>
<path d="M432 88 l1 -43 4 38 c5 47 25 45 35 -4 6 -34 6 -34 5 6 -2 33 -6 41
-24 43 -21 3 -23 0 -21 -40z"/>
<path d="M593 90 c0 -25 2 -35 4 -22 2 12 2 32 0 45 -2 12 -4 2 -4 -23z"/>
<path d="M663 95 c2 -33 6 -41 25 -43 20 -3 22 0 20 40 l-1 43 -4 -38 c-5 -47
-25 -45 -35 4 -6 34 -6 34 -5 -6z"/>
<path d="M774 116 c-11 -29 1 -61 24 -64 12 -2 22 1 22 6 0 6 -9 8 -19 5 -17
-4 -20 0 -19 26 1 20 6 31 16 31 8 0 12 -6 8 -15 -3 -8 -1 -15 4 -15 6 0 10 9
10 20 0 24 -37 28 -46 6z"/>
<path d="M1060 91 c0 -34 3 -41 19 -41 11 0 23 5 27 11 4 8 0 9 -15 4 -18 -6
-21 -2 -21 25 0 21 4 30 13 27 6 -2 11 -10 10 -16 -2 -6 2 -11 8 -11 20 0 4
35 -19 38 -20 3 -22 -1 -22 -37z"/>
<path d="M1125 110 c-3 -11 -3 -29 0 -40 8 -25 45 -27 44 -2 0 10 -3 12 -6 5
-6 -17 -20 -16 -27 2 -8 22 4 47 20 41 8 -3 14 -1 14 4 0 19 -39 10 -45 -10z"/>
<path d="M1262 88 l1 -43 4 38 c5 47 25 45 35 -4 6 -34 6 -34 5 6 -2 33 -6 41
-24 43 -21 3 -23 0 -21 -40z"/>
<path d="M1325 111 c-10 -34 4 -63 28 -59 18 2 22 10 22 38 0 28 -4 36 -22 38
-14 2 -23 -3 -28 -17z m40 -21 c0 -13 -5 -25 -11 -27 -14 -5 -25 22 -17 42 8
23 28 12 28 -15z"/>
<path d="M1415 111 c-10 -34 4 -63 28 -59 18 2 22 10 22 38 0 28 -4 36 -22 38
-14 2 -23 -3 -28 -17z m40 -21 c0 -13 -5 -25 -11 -27 -14 -5 -25 22 -17 42 8
23 28 12 28 -15z"/>
<path d="M1487 123 c-4 -3 -7 -20 -7 -36 0 -20 6 -30 20 -34 11 -3 20 -10 20
-15 0 -5 -10 -6 -21 -3 -15 5 -19 4 -15 -4 4 -6 16 -11 27 -11 16 0 19 7 19
55 0 47 -3 55 -18 55 -10 0 -22 -3 -25 -7z m33 -34 c0 -38 -24 -35 -28 4 -2
19 1 27 12 27 11 0 16 -10 16 -31z"/>
<path d="M1546 109 c4 -13 10 -40 14 -59 l7 -35 12 43 c7 24 15 50 18 59 4 11
2 14 -5 9 -7 -4 -12 -16 -12 -27 0 -10 -4 -19 -10 -19 -5 0 -10 9 -10 19 0 11
-5 23 -11 27 -8 4 -9 -1 -3 -17z"/>
</g>
</svg>
